# xmcd
#
# Track frame offsets: 
#        150
#        12648
#        26099
#        38105
#        51876
#        62407
#        75300
#        87846
#        100917
#        113790
#        125320
#        138436
#        149725
#        163836
#        176852
#        188101
#        200052
#        211390
#        223346
#        234542
#
# Disc length: 3255 seconds
#
# Revision: 1
# Processed by: cddbd v1.5.2PL0 Copyright (c) Steve Scherf et al.
# Submitted via: ExactAudioCopy v1.0b3
#
DISCID=2b0cb514
DTITLE=Merle Travis - The Guitar Picker CD2 (1947-51)
DYEAR=1900
DGENRE=Country
TTITLE0=Steel Guitar Rag
TTITLE1=Three Times Seven
TTITLE2=Fat Gal
TTITLE3=Merle's Boogie Woogie
TTITLE4='T' For Texas
TTITLE5=I'm A Natural Born Gamblin' Man
TTITLE6=The Devil To Pay
TTITLE7=Lawdy What A Gal
TTITLE8=Crazy Boogie
TTITLE9=Wabash Cannonball
TTITLE10=Get Along Blues
TTITLE11=Philosophy
TTITLE12=I Got A Mean Old Woman
TTITLE13=Petticoat Fever
TTITLE14=I'm Pickin' Up The Pieces Of My Heart
TTITLE15=Dry Bread
TTITLE16=Won't Cha Be My Baby
TTITLE17=El Reno
TTITLE18=Guitar Rag
TTITLE19=Deep South
EXTD=
EXTT0=
EXTT1=
EXTT2=
EXTT3=
EXTT4=
EXTT5=
EXTT6=
EXTT7=
EXTT8=
EXTT9=
EXTT10=
EXTT11=
EXTT12=
EXTT13=
EXTT14=
EXTT15=
EXTT16=
EXTT17=
EXTT18=
EXTT19=
PLAYORDER=
